<?xml version="1.0" standalone="no"?>
<!DOCTYPE svg PUBLIC "-//W3C//DTD SVG 20010904//EN"
 "http://www.w3.org/TR/2001/REC-SVG-20010904/DTD/svg10.dtd">
<svg version="1.0" xmlns="http://www.w3.org/2000/svg"
 width="4320.000000pt" height="4320.000000pt" viewBox="0 0 4320.000000 4320.000000"
 preserveAspectRatio="xMidYMid meet">

<g transform="translate(0.000000,4320.000000) scale(0.100000,-0.100000)"
fill="#000000" stroke="none">
<path d="M0 21600 l0 -21600 21600 0 21600 0 0 21600 0 21600 -21600 0 -21600
0 0 -21600z m17098 3622 c2 -7 17 -12 33 -12 16 0 29 -4 29 -10 0 -5 16 -10
35 -10 19 0 35 -4 35 -9 0 -9 32 -24 55 -27 19 -2 65 -27 65 -36 0 -5 4 -7 9
-4 7 5 55 -25 71 -44 3 -4 13 -10 24 -13 11 -5 16 -13 12 -23 -3 -8 -2 -13 3
-10 11 7 87 -53 84 -65 -2 -5 1 -9 6 -9 16 0 61 -53 61 -71 0 -11 5 -19 10
-19 6 0 10 -7 10 -15 0 -8 5 -15 11 -15 13 0 42 -68 33 -81 -3 -6 1 -9 9 -7 9
2 16 -1 17 -7 4 -20 21 -45 32 -45 6 0 5 7 -3 18 -13 15 -12 16 3 4 13 -10 15
-19 8 -37 -7 -19 -6 -22 8 -19 18 5 64 -64 67 -97 1 -10 9 -25 18 -34 10 -9
15 -21 12 -26 -4 -5 -1 -9 4 -9 6 0 11 -7 11 -15 0 -9 7 -27 16 -40 9 -13 13
-29 9 -35 -3 -5 1 -10 9 -10 10 0 13 -6 9 -17 -4 -9 -2 -14 3 -10 5 3 11 -3
12 -14 1 -10 3 -28 4 -38 1 -11 7 -17 12 -14 5 4 7 -3 4 -15 -4 -12 -2 -19 3
-16 5 3 12 -3 15 -13 3 -10 8 -25 12 -33 3 -8 6 -17 6 -20 1 -3 8 -16 16 -30
8 -14 15 -27 15 -30 0 -3 14 -34 30 -70 17 -36 29 -68 27 -72 -1 -5 2 -8 7 -8
5 0 11 -12 14 -27 7 -41 14 -65 27 -98 6 -16 11 -31 12 -32 1 -15 12 -43 17
-43 3 0 7 -12 8 -27 2 -44 29 -128 40 -126 5 1 8 -11 5 -26 -2 -16 2 -34 12
-43 8 -9 13 -18 10 -20 -2 -3 1 -18 8 -34 13 -32 15 -40 17 -67 0 -10 5 -16
10 -13 5 3 8 0 8 -7 -2 -24 15 -87 24 -87 5 0 6 -7 3 -15 -4 -8 -1 -15 5 -15
6 0 11 -11 11 -24 0 -13 7 -29 15 -36 9 -8 13 -21 9 -35 -4 -16 0 -26 13 -34
13 -7 15 -13 6 -18 -8 -6 -8 -12 1 -25 7 -10 17 -14 21 -10 5 4 5 2 2 -5 -4
-6 -3 -23 3 -38 6 -17 6 -24 0 -20 -6 3 -7 -1 -4 -9 3 -9 9 -16 13 -16 6 0 32
-82 30 -96 0 -4 4 -10 11 -14 6 -4 12 -13 13 -21 2 -8 6 -20 10 -26 5 -7 6
-17 2 -22 -3 -5 -1 -12 5 -16 6 -4 8 -11 5 -16 -4 -5 -2 -9 4 -9 5 0 12 -14
16 -30 4 -17 13 -44 22 -60 8 -17 16 -45 18 -63 2 -17 4 -36 4 -40 1 -5 5 -6
9 -3 5 3 9 0 10 -7 0 -7 4 -25 7 -42 4 -16 8 -36 9 -43 1 -7 10 -22 19 -32 9
-11 12 -22 8 -25 -11 -6 -2 -45 9 -45 4 0 18 -29 31 -65 12 -35 26 -62 30 -59
4 2 6 -7 3 -21 -2 -14 -1 -25 4 -25 13 0 72 -159 72 -193 0 -9 5 -17 11 -17 6
0 9 -6 6 -14 -3 -8 -1 -16 4 -18 6 -2 11 -10 13 -18 4 -19 29 -78 67 -154 16
-33 31 -68 33 -78 1 -11 7 -23 13 -26 5 -4 22 -33 37 -64 16 -32 32 -55 37
-52 5 3 6 -2 3 -11 -4 -8 -1 -22 6 -30 7 -9 10 -18 7 -21 -3 -4 3 -16 14 -27
11 -12 17 -27 15 -34 -3 -7 -1 -13 4 -13 9 0 26 -39 22 -52 -1 -4 6 -4 15 -1
10 4 14 2 10 -4 -11 -17 10 -63 28 -63 9 0 14 -4 10 -9 -11 -19 85 -176 114
-186 11 -3 18 -12 15 -19 -2 -7 3 -22 13 -34 10 -11 28 -34 40 -49 12 -15 51
-60 87 -98 36 -39 66 -74 66 -79 0 -4 7 -6 15 -2 8 3 14 2 14 -2 -3 -20 2 -31
14 -27 7 3 18 -8 26 -26 7 -17 24 -34 36 -39 13 -5 26 -14 30 -20 3 -5 11 -8
16 -5 5 3 7 0 4 -7 -2 -7 16 -28 40 -47 25 -18 43 -37 40 -41 -2 -4 7 -5 22
-2 21 4 25 2 20 -12 -4 -11 -1 -16 11 -16 10 0 28 -9 40 -20 11 -11 27 -17 35
-14 8 3 18 1 22 -5 3 -7 0 -8 -9 -5 -27 11 -17 -5 13 -21 17 -8 38 -12 48 -8
16 6 16 5 4 -10 -11 -14 -11 -17 0 -17 8 0 30 -11 49 -23 43 -29 77 -39 84
-23 2 6 5 3 5 -8 1 -13 6 -16 18 -12 10 4 14 4 10 0 -7 -7 37 -34 55 -34 5 0
16 -7 25 -16 11 -10 19 -12 26 -5 7 7 14 5 22 -6 8 -11 26 -17 49 -16 20 1 34
-2 32 -6 -2 -3 13 -14 35 -23 21 -9 39 -13 39 -9 0 4 7 8 15 8 8 0 12 -3 10
-7 -4 -7 57 -27 85 -28 8 -1 47 -5 85 -11 44 -6 74 -6 80 0 12 12 28 12 20 0
-10 -17 32 -23 183 -26 81 -2 147 -5 147 -5 0 -1 21 -3 48 -4 26 -1 47 3 47 8
0 4 6 4 13 -1 6 -5 26 -8 42 -7 17 1 75 5 130 9 55 3 108 8 118 11 10 3 32 7
50 10 17 2 34 9 36 15 2 8 5 8 10 0 5 -7 17 -8 39 -2 19 6 34 6 38 0 3 -5 12
-2 20 6 12 12 20 13 37 3 19 -9 20 -9 10 3 -9 11 -6 14 15 15 52 3 112 23 112
38 0 8 3 7 8 -1 6 -9 22 -7 67 8 33 11 65 17 72 15 7 -3 13 -2 13 2 0 4 9 8
21 9 31 3 149 44 149 52 0 4 16 7 35 6 19 0 35 3 35 7 0 4 7 5 15 2 8 -4 15
-1 15 7 0 7 3 10 6 6 4 -3 13 1 21 9 9 8 22 13 30 10 8 -3 21 1 29 9 9 8 30
15 47 15 24 0 28 3 17 10 -13 8 -13 10 2 10 9 0 18 3 21 8 2 4 2 1 0 -7 -3
-12 0 -11 15 2 10 9 26 17 35 17 9 0 19 5 22 10 4 6 10 8 15 5 5 -3 11 -1 15
5 3 5 19 10 36 10 16 0 29 5 29 11 0 5 4 8 9 5 5 -3 11 1 15 9 3 8 14 15 24
15 10 0 23 5 29 11 7 7 20 12 30 13 10 2 31 6 46 10 22 7 26 11 15 18 -10 7
-8 8 7 6 11 -1 32 10 49 26 22 23 30 26 37 15 6 -10 9 -10 9 -1 0 6 7 12 15
12 7 0 19 8 24 18 6 9 11 14 11 10 0 -4 9 0 20 10 12 9 24 17 29 17 4 0 15 8
25 18 10 9 22 15 27 12 5 -4 9 -2 9 3 0 6 7 13 16 16 10 4 13 2 8 -7 -4 -6 6
0 22 14 16 14 54 39 84 55 30 16 58 34 62 39 4 6 13 10 20 10 7 1 12 7 10 14
-1 7 2 10 6 7 5 -3 20 4 34 17 27 26 31 27 60 27 12 0 18 3 15 6 -8 8 83 74
101 74 7 0 10 5 7 10 -3 6 0 10 8 10 8 0 28 14 46 30 17 17 31 27 31 24 0 -4
8 3 19 14 10 12 25 22 32 22 8 0 20 9 27 21 7 12 16 19 18 16 3 -2 34 23 69
57 35 33 82 77 104 96 23 19 41 41 41 48 0 7 4 11 9 7 6 -3 14 2 19 11 5 9 13
17 18 17 5 1 8 4 8 7 -1 3 12 19 29 35 22 22 26 23 11 5 -17 -23 -17 -23 0
-10 10 8 23 26 28 40 7 16 12 20 15 12 4 -10 11 -8 29 9 13 12 21 26 18 31 -6
10 36 45 49 40 4 -1 7 6 8 15 0 11 3 13 6 5 6 -14 63 35 63 55 0 6 5 15 12 19
8 5 9 2 4 -11 -5 -15 -4 -16 8 -6 8 7 13 18 10 26 -3 7 0 16 7 21 8 5 10 3 4
-6 -5 -8 -3 -11 6 -8 8 3 13 11 11 18 -1 7 2 18 9 26 9 10 16 11 33 2 11 -6
18 -7 13 -3 -4 5 3 20 15 34 l23 26 -27 -24 c-16 -14 -28 -20 -28 -15 0 13 72
80 83 76 5 -1 6 2 3 7 -8 12 22 43 34 36 5 -3 10 5 12 17 2 13 9 22 16 20 6
-1 11 4 10 10 -2 7 2 12 8 11 6 -1 22 10 35 25 18 20 19 23 4 12 -18 -14 -19
-14 -7 2 8 10 17 17 20 16 18 -2 35 3 29 8 -4 4 19 32 51 63 31 32 70 72 85
89 16 19 33 30 40 26 7 -4 9 -4 5 1 -9 9 81 111 94 107 5 -1 7 1 4 6 -2 4 29
43 69 85 41 42 73 77 71 77 -2 0 32 36 77 80 44 43 85 76 90 73 6 -3 7 -1 4 4
-4 6 0 16 8 23 8 7 12 17 8 23 -3 5 -1 7 5 3 6 -3 18 4 26 16 72 103 526 533
609 577 15 8 27 18 27 23 0 4 5 8 11 8 7 0 20 9 29 21 10 11 27 21 38 22 12 0
19 4 16 8 -2 4 3 12 11 19 12 10 15 9 15 -6 0 -15 4 -14 17 8 10 16 41 37 80
54 35 15 63 31 63 35 0 4 23 12 50 19 28 7 53 16 56 21 3 5 20 9 39 9 18 0 40
6 47 13 7 6 22 13 33 14 54 4 195 37 195 45 0 5 5 6 12 2 7 -4 39 -9 73 -10
143 -4 281 -22 298 -38 7 -7 31 -13 55 -13 23 -1 49 -9 57 -17 8 -8 24 -12 36
-9 15 4 28 -2 46 -23 13 -16 22 -23 18 -16 -3 6 -2 12 3 12 6 0 12 -7 16 -15
3 -8 13 -15 22 -15 10 0 26 -8 37 -17 12 -10 17 -12 12 -4 -4 7 10 2 31 -13
21 -14 47 -26 57 -26 10 0 15 -4 12 -10 -3 -5 -1 -10 5 -10 6 0 18 -7 27 -16
9 -8 21 -13 28 -10 7 2 12 -3 11 -12 0 -9 4 -16 10 -15 7 1 22 -13 35 -32 13
-19 34 -39 46 -44 13 -6 23 -15 23 -21 0 -5 3 -9 8 -8 14 3 42 -14 36 -23 -3
-5 -2 -9 3 -9 16 0 63 -47 63 -63 0 -9 5 -19 10 -22 6 -3 35 -38 66 -76 34
-43 61 -68 69 -65 9 3 12 0 9 -8 -7 -17 24 -48 39 -39 7 3 9 3 5 -1 -7 -9 -6
-12 48 -73 20 -24 41 -40 48 -36 7 4 7 1 -1 -7 -10 -11 -8 -18 11 -35 12 -11
21 -26 19 -32 -2 -6 7 -20 21 -31 14 -10 23 -22 19 -25 -3 -4 -1 -12 4 -19 6
-7 13 -26 17 -41 4 -17 11 -25 18 -21 7 5 8 3 3 -6 -5 -8 -1 -18 11 -28 12 -9
15 -16 8 -19 -7 -2 -10 -13 -7 -24 4 -14 9 -17 18 -9 9 7 12 2 13 -20 0 -16
-4 -32 -9 -36 -5 -3 -7 -10 -3 -15 3 -5 10 -7 15 -3 6 3 7 -4 3 -20 -5 -23 -4
-25 12 -19 17 6 17 5 5 -10 -12 -15 -11 -17 9 -17 19 0 20 -2 10 -15 -10 -12
-10 -15 4 -15 9 0 16 -5 16 -11 0 -5 -4 -8 -9 -5 -5 3 -12 -1 -15 -9 -4 -11 0
-15 12 -13 11 2 16 -3 14 -15 -2 -9 3 -20 10 -22 8 -3 15 -16 16 -30 3 -35 6
-49 14 -55 3 -3 9 -25 13 -50 4 -24 10 -49 13 -55 4 -5 7 -18 8 -27 1 -10 2
-19 4 -20 1 -2 3 -12 5 -23 6 -36 14 -65 21 -77 4 -7 3 -8 -4 -4 -7 4 -12 2
-12 -3 0 -6 4 -11 9 -11 12 0 20 -38 25 -117 2 -34 7 -67 11 -72 3 -6 0 -11
-7 -11 -8 0 -9 -3 -3 -8 11 -7 11 -32 -1 -69 -3 -13 -2 -23 2 -23 5 0 9 -18
10 -40 1 -22 -3 -40 -8 -40 -5 0 -1 -11 8 -25 9 -14 13 -32 10 -41 -4 -12 -2
-15 9 -10 9 3 15 0 15 -9 0 -8 -7 -15 -15 -15 -19 0 -19 -14 1 -34 14 -15 14
-17 0 -32 -16 -15 -23 -90 -8 -80 4 2 9 -7 10 -22 1 -14 -4 -29 -10 -33 -10
-7 -10 -11 0 -21 14 -14 16 -55 2 -60 -5 -1 -12 -18 -14 -35 -2 -18 0 -31 4
-28 4 2 7 -9 6 -24 -1 -16 -5 -29 -10 -28 -4 1 -10 -6 -11 -16 -2 -9 1 -15 6
-11 5 3 9 -4 9 -14 0 -11 -7 -22 -15 -26 -8 -3 -15 -13 -15 -23 0 -15 2 -16
10 -3 7 11 10 8 10 -15 0 -17 -5 -36 -12 -43 -8 -8 -9 -12 -1 -12 6 0 9 -9 6
-21 -4 -16 -8 -17 -14 -7 -7 10 -9 9 -9 -4 0 -10 4 -18 9 -18 5 0 4 -11 -2
-24 -7 -13 -16 -22 -20 -19 -5 3 -4 -4 2 -14 6 -11 7 -23 4 -27 -4 -4 -8 -28
-9 -54 -1 -26 -3 -49 -4 -52 -1 -3 -1 -13 0 -24 1 -10 -3 -15 -8 -12 -5 3 -9
-2 -8 -12 0 -9 -5 -16 -11 -14 -21 4 -15 -8 10 -18 15 -6 17 -9 6 -9 -19 -1
-34 -41 -16 -41 7 -1 3 -8 -8 -18 -18 -15 -19 -20 -8 -42 11 -22 10 -27 -9
-41 -16 -12 -18 -18 -8 -24 10 -6 10 -10 -2 -19 -8 -6 -18 -24 -21 -41 l-7
-30 15 25 16 25 -7 -25 c-7 -28 -23 -42 -38 -33 -5 3 -6 1 -2 -6 4 -6 12 -8
18 -5 7 5 8 2 2 -7 -5 -8 -9 -17 -9 -21 0 -3 -4 -10 -9 -15 -5 -5 -6 -2 -2 7
4 8 0 6 -8 -4 -9 -11 -16 -30 -16 -43 0 -13 -6 -23 -12 -23 -9 0 -8 -3 2 -10
12 -8 12 -10 -3 -16 -9 -3 -14 -10 -11 -15 3 -5 0 -9 -6 -9 -7 0 -10 -7 -6
-15 3 -8 -1 -21 -9 -29 -8 -8 -15 -19 -15 -25 0 -6 -3 -11 -8 -11 -4 0 -12
-16 -18 -35 -6 -19 -7 -32 -3 -29 4 2 11 -1 15 -7 4 -7 3 -9 -3 -6 -6 4 -16 0
-23 -8 -7 -8 -9 -15 -6 -15 4 0 0 -7 -8 -16 -15 -14 -21 -35 -17 -57 1 -5 -3
-6 -8 -3 -14 9 -21 -20 -8 -33 9 -9 8 -11 -3 -7 -11 4 -20 -7 -33 -38 -10 -24
-19 -53 -20 -65 -1 -12 -5 -21 -10 -21 -5 0 -6 -7 -3 -16 3 -9 2 -12 -4 -9 -9
5 -55 -79 -48 -87 1 -2 -7 -13 -17 -26 -11 -12 -20 -26 -20 -30 -1 -4 -8 -21
-18 -38 -9 -17 -13 -34 -10 -38 4 -3 2 -6 -4 -6 -10 0 -27 -36 -24 -53 1 -5
-3 -6 -8 -2 -6 3 -18 -9 -27 -27 -9 -18 -22 -36 -28 -40 -6 -4 -8 -8 -4 -8 8
0 -45 -93 -70 -122 -8 -10 -12 -18 -8 -18 4 0 -5 -12 -19 -27 -14 -15 -25 -31
-25 -36 0 -7 -9 -20 -37 -52 -7 -7 -13 -18 -13 -23 0 -5 -7 -15 -15 -22 -8 -7
-12 -16 -9 -21 3 -5 -1 -6 -9 -3 -8 3 -18 1 -22 -5 -3 -6 -1 -11 5 -11 10 0
-5 -20 -63 -82 -10 -11 -19 -28 -20 -38 -1 -10 -4 -17 -8 -15 -3 3 -18 -8 -32
-24 -17 -20 -22 -32 -15 -39 7 -7 4 -10 -8 -9 -11 1 -18 -4 -16 -11 1 -8 -2
-11 -8 -7 -5 3 -10 2 -10 -3 0 -5 -29 -38 -65 -74 -36 -36 -65 -69 -65 -73 0
-4 -16 -21 -35 -37 -19 -17 -32 -36 -28 -41 3 -6 1 -7 -4 -4 -6 4 -16 1 -22
-7 -9 -11 -9 -15 1 -19 7 -3 2 -6 -11 -6 -13 -1 -21 -4 -18 -8 4 -3 -3 -11
-14 -17 -12 -6 -21 -15 -21 -21 0 -5 -6 -14 -14 -18 -8 -4 -14 -15 -14 -23 0
-9 -5 -12 -12 -8 -8 5 -9 2 -5 -10 4 -9 3 -15 -2 -12 -11 7 -92 -80 -83 -89 4
-5 2 -5 -4 -2 -6 3 -22 -5 -36 -18 -14 -13 -29 -21 -33 -17 -5 4 -6 -2 -3 -14
6 -24 -16 -59 -31 -49 -6 3 -11 1 -11 -4 0 -6 -6 -10 -12 -9 -7 2 -14 -7 -16
-19 -2 -12 -9 -20 -15 -17 -7 2 -21 -2 -32 -11 -19 -14 -19 -15 -1 -8 13 4 17
2 14 -8 -3 -8 -12 -13 -21 -13 -9 1 -15 -1 -13 -5 3 -4 0 -13 -5 -21 -8 -13
-10 -13 -20 0 -9 13 -10 13 -6 -2 3 -9 -2 -22 -11 -30 -11 -9 -14 -9 -8 -1 5
9 2 11 -7 7 -8 -3 -17 -15 -20 -26 -4 -14 -11 -19 -22 -14 -9 3 -13 2 -10 -4
3 -6 -2 -10 -12 -11 -11 0 -13 -3 -5 -6 10 -4 10 -8 1 -19 -6 -8 -15 -11 -20
-8 -5 3 -12 -2 -15 -11 -6 -13 -8 -14 -15 -3 -7 10 -9 8 -9 -6 0 -11 -7 -28
-17 -38 -18 -20 -38 -25 -27 -6 4 7 3 8 -4 4 -6 -4 -8 -14 -5 -24 6 -15 5 -15
-10 -3 -15 12 -17 12 -12 0 3 -8 -7 -23 -21 -34 -15 -11 -39 -32 -54 -47 -15
-16 -33 -28 -39 -28 -7 0 -14 -7 -17 -15 -4 -8 -10 -13 -15 -10 -4 3 -16 -6
-25 -20 -9 -14 -23 -25 -30 -25 -8 0 -14 -6 -14 -13 0 -7 -13 -23 -29 -34 -22
-17 -31 -19 -40 -10 -9 9 -11 8 -6 -5 4 -10 3 -18 -3 -18 -6 0 -13 -9 -17 -19
-4 -13 -12 -18 -22 -14 -11 4 -14 2 -9 -5 5 -8 2 -10 -8 -6 -10 4 -16 1 -16
-10 0 -8 -9 -20 -19 -26 -26 -13 -34 -13 -25 2 4 7 3 8 -5 4 -6 -4 -9 -11 -6
-15 7 -13 -32 -44 -46 -35 -7 4 -10 3 -6 -3 3 -5 -3 -15 -13 -23 -10 -8 -17
-17 -14 -21 2 -5 -5 -6 -16 -4 -11 2 -20 -1 -20 -6 0 -13 -41 -48 -56 -49 -6
0 -16 -10 -22 -22 -6 -14 -11 -17 -11 -8 -1 10 -6 7 -17 -8 -8 -12 -19 -20
-23 -18 -4 3 -14 -4 -21 -15 -8 -10 -20 -19 -26 -19 -7 0 -14 -7 -18 -15 -3
-8 -11 -15 -18 -15 -7 -1 -28 -14 -47 -30 -19 -16 -39 -26 -44 -23 -6 3 -7 2
-4 -4 4 -5 -6 -16 -21 -24 -15 -8 -36 -22 -47 -32 -11 -10 -28 -16 -37 -13
-10 2 -16 0 -12 -5 5 -8 -9 -13 -28 -10 -4 0 -5 -6 -2 -14 4 -9 -4 -19 -23
-27 -15 -7 -32 -18 -36 -25 -5 -8 -13 -11 -18 -7 -6 3 -17 -2 -24 -12 -13 -17
-16 -17 -25 -4 -8 12 -10 11 -10 -6 0 -13 -8 -24 -20 -27 -11 -3 -20 -1 -20 4
0 5 -9 0 -19 -10 -10 -10 -43 -31 -71 -45 -64 -32 -224 -135 -228 -147 -2 -5
-8 -9 -14 -9 -13 0 -38 -26 -32 -33 3 -3 -3 -3 -14 0 -14 3 -22 -1 -26 -14 -5
-14 -15 -19 -36 -18 -16 1 -28 -3 -27 -9 1 -5 -5 -10 -13 -11 -8 -1 -14 -6
-13 -12 1 -6 -5 -9 -15 -7 -9 3 -39 -9 -65 -26 -26 -16 -50 -30 -52 -30 -10 0
-44 -34 -40 -40 3 -4 -7 -6 -20 -4 -14 1 -23 -1 -21 -5 3 -4 -18 -19 -45 -34
-27 -16 -49 -25 -49 -22 0 4 -7 -1 -16 -10 -9 -9 -29 -19 -45 -22 -16 -3 -29
-10 -29 -16 0 -6 -3 -8 -6 -4 -4 3 -13 -1 -21 -9 -9 -8 -22 -13 -30 -10 -8 3
-12 2 -9 -3 7 -11 -22 -23 -36 -14 -7 3 -8 1 -4 -6 8 -12 -52 -43 -66 -35 -5
3 -8 1 -8 -4 0 -13 -50 -33 -62 -26 -7 5 -8 2 -3 -6 6 -10 4 -12 -8 -7 -10 3
-17 2 -17 -3 0 -15 -57 -40 -76 -33 -12 5 -15 3 -9 -6 6 -10 2 -11 -15 -6 -14
4 -20 3 -16 -3 3 -5 -1 -13 -10 -16 -8 -3 -12 -2 -9 4 3 5 -1 7 -9 4 -8 -3
-17 -12 -20 -20 -3 -8 -11 -14 -18 -13 -27 3 -49 -1 -44 -9 3 -5 -1 -9 -8 -9
-28 0 -126 -46 -119 -56 4 -6 0 -8 -10 -4 -10 4 -50 -7 -91 -23 -41 -17 -78
-30 -83 -30 -5 0 -59 -16 -119 -36 -146 -47 -343 -105 -374 -109 -14 -2 -50
-12 -80 -21 -30 -10 -61 -17 -67 -15 -7 1 -23 -4 -35 -11 -13 -7 -27 -11 -33
-9 -15 4 -155 -22 -155 -29 0 -4 -20 -4 -45 0 -25 4 -45 3 -45 -2 0 -4 -16 -8
-35 -8 -19 0 -35 -3 -35 -7 0 -5 -18 -9 -41 -10 -57 -2 -110 -13 -105 -21 8
-13 -311 -19 -547 -11 -59 2 -107 1 -107 -2 0 -3 -7 -6 -15 -6 -8 0 -12 4 -9
9 3 4 -2 8 -10 8 -9 0 -16 -6 -16 -12 0 -9 -3 -10 -8 -2 -4 6 -61 16 -127 23
-110 11 -176 23 -215 38 -8 3 -33 7 -54 9 -22 2 -47 6 -55 10 -17 7 -32 10
-91 17 -19 3 -36 10 -38 16 -2 6 -8 9 -12 6 -9 -6 -131 25 -140 35 -3 3 -24 5
-47 5 -22 0 -39 3 -37 7 5 8 -56 29 -67 22 -5 -3 -9 -2 -9 3 0 13 -49 32 -56
22 -9 -15 -24 -10 -25 9 0 10 -3 12 -6 5 -3 -10 -8 -9 -20 2 -8 8 -19 13 -24
10 -5 -4 -9 -2 -9 3 0 5 -17 14 -37 20 -21 6 -65 18 -98 27 -33 9 -62 20 -66
26 -3 6 -22 11 -41 12 -20 1 -34 5 -31 10 4 6 -5 9 -23 6 -4 0 -10 3 -13 8
-12 17 -51 32 -66 27 -8 -3 -15 -2 -15 3 0 5 -16 17 -35 26 -42 20 -49 21 -39
5 4 -7 3 -8 -5 -4 -6 4 -9 12 -6 17 4 5 4 9 1 9 -2 0 -12 3 -22 7 -13 5 -15 3
-10 -8 4 -8 0 -5 -9 6 -9 11 -21 19 -26 17 -5 -1 -9 4 -9 10 0 9 -4 8 -10 -2
-8 -13 -10 -12 -10 3 0 10 -4 16 -9 12 -5 -3 -15 1 -23 8 -16 16 -110 62 -120
59 -5 -1 -8 2 -8 8 0 5 -5 10 -11 10 -6 0 -22 9 -37 20 -20 16 -27 18 -34 8
-5 -10 -8 -8 -8 5 0 10 -10 22 -22 27 -13 5 -17 9 -9 9 8 1 11 4 8 7 -4 4 -14
1 -24 -7 -10 -8 -14 -9 -10 -2 9 15 -28 37 -45 27 -7 -5 -8 -3 -3 6 6 10 3 12
-13 8 -12 -4 -20 -2 -16 3 3 5 -4 9 -16 9 -12 0 -19 4 -15 10 3 5 -12 18 -35
30 -22 11 -40 17 -40 13 0 -4 -7 2 -15 13 -10 13 -14 15 -15 5 0 -8 -2 -12 -4
-10 -2 2 -4 7 -3 10 3 9 -30 39 -43 39 -6 0 -8 -5 -4 -12 5 -8 1 -8 -12 2 -29
22 -30 24 -11 17 31 -11 17 8 -19 26 -19 9 -40 14 -46 11 -6 -4 -8 -2 -5 3 4
6 -6 19 -21 28 l-27 18 20 -23 20 -23 -27 17 c-14 9 -29 24 -32 33 -4 9 -13
13 -21 9 -9 -3 -18 1 -21 9 -4 8 -15 15 -25 15 -10 0 -18 6 -17 13 2 6 -4 11
-12 9 -8 -2 -19 3 -25 10 -5 7 -17 13 -25 13 -8 0 -19 10 -25 23 -5 12 -16 20
-23 17 -7 -3 -11 -1 -8 4 3 5 -1 14 -9 21 -13 11 -14 10 -9 -5 5 -13 4 -16 -4
-11 -7 4 -12 14 -12 23 0 9 -6 13 -14 10 -11 -4 -13 -1 -9 10 5 12 2 15 -10
10 -11 -4 -20 1 -28 14 -6 11 -13 18 -16 15 -4 -3 -12 3 -20 13 -8 12 -20 17
-32 14 -13 -3 -20 2 -24 17 -4 15 -11 21 -21 17 -11 -4 -16 -1 -16 11 0 15 -2
15 -10 2 -8 -12 -10 -12 -10 5 0 15 -2 17 -9 6 -6 -9 -11 -10 -15 -2 -4 6 -4
15 -1 21 3 6 -1 7 -9 4 -9 -3 -16 -1 -16 5 0 6 -6 8 -13 5 -7 -2 -22 4 -32 16
-10 11 -13 20 -7 20 7 0 12 -5 12 -12 0 -6 3 -8 7 -4 4 4 -6 18 -22 30 -21 17
-32 21 -37 13 -5 -8 -8 -4 -8 8 0 17 -2 17 -10 5 -8 -12 -10 -12 -10 -1 0 8
-3 11 -7 8 -8 -9 -34 13 -28 24 3 4 -4 6 -15 4 -11 -2 -18 0 -15 6 4 5 1 10
-4 10 -20 3 -26 5 -63 28 -21 13 -38 27 -38 31 0 5 -9 12 -20 15 -11 3 -20 13
-20 21 0 8 -5 14 -11 14 -5 0 -7 -6 -4 -12 4 -7 -3 -2 -15 12 -12 14 -25 25
-29 25 -3 0 -5 4 -3 8 1 4 -3 7 -10 6 -26 -3 -38 1 -38 14 0 8 -9 22 -20 32
-11 10 -20 13 -20 7 0 -6 -7 -9 -16 -5 -8 3 -13 12 -10 19 4 9 -2 14 -18 14
-23 0 -61 32 -50 42 3 3 1 9 -5 13 -6 3 -11 1 -11 -5 0 -6 -14 -2 -30 10 -17
12 -28 26 -25 31 4 5 0 6 -8 3 -8 -3 -18 0 -23 7 -4 8 -3 10 4 5 7 -4 12 -5
12 -2 0 3 -17 14 -37 24 -21 10 -37 24 -35 30 1 7 -1 11 -5 11 -24 -4 -53 2
-49 10 3 5 -6 12 -20 15 -21 6 -23 10 -14 21 9 11 7 12 -10 8 -17 -4 -31 4
-57 33 -20 21 -33 33 -29 27 10 -18 -2 -16 -32 5 -15 10 -35 22 -45 25 -11 4
-15 12 -11 18 4 7 3 9 -3 6 -6 -4 -18 2 -28 13 -10 11 -24 20 -32 20 -7 0 -13
6 -13 14 0 8 -10 14 -25 14 -27 0 -58 19 -50 32 3 4 -2 11 -11 14 -10 4 -13 2
-9 -7 4 -6 0 -4 -8 6 -16 19 -32 24 -21 6 5 -8 1 -8 -14 0 -12 6 -24 16 -28
23 -5 7 -3 8 7 3 12 -8 12 -6 0 8 -9 11 -21 15 -34 11 -12 -4 -17 -2 -13 4 3
6 -6 19 -21 30 -46 31 -60 36 -28 8 46 -39 18 -31 -32 10 -24 19 -41 39 -38
44 3 4 -3 6 -14 3 -12 -3 -20 2 -24 16 -3 14 -13 21 -30 21 -13 0 -30 7 -37
15 -11 13 -10 15 6 9 14 -4 15 -3 5 4 -7 5 -22 7 -32 5 -11 -3 -19 0 -19 6 0
7 5 9 12 5 7 -4 8 -3 4 5 -4 6 -11 9 -16 6 -11 -7 -66 20 -76 37 -5 7 5 4 21
-6 26 -17 28 -17 16 -2 -21 26 -69 48 -73 35 -2 -7 -10 -4 -18 7 -13 16 -13
17 0 10 8 -4 4 2 -10 13 -14 11 -31 19 -38 16 -7 -3 -10 0 -7 5 3 6 2 10 -4
10 -5 0 -11 -5 -13 -12 -2 -6 -10 2 -16 18 -12 29 -65 59 -84 48 -5 -3 -7 -1
-6 4 4 13 -62 66 -102 82 -16 7 -30 17 -30 22 0 6 -6 8 -14 5 -8 -3 -16 -2
-18 2 -2 4 -31 27 -65 51 -35 24 -63 48 -63 52 0 4 -5 8 -12 8 -6 0 -26 11
-45 26 -18 14 -38 22 -45 18 -6 -4 -8 -3 -5 3 9 14 -80 76 -95 67 -6 -4 -8 -3
-4 4 4 6 -13 24 -39 42 -25 17 -45 29 -45 27 0 -2 -16 11 -36 29 -20 19 -41
31 -47 27 -7 -3 -9 -3 -5 2 4 4 -16 25 -44 46 -48 36 -62 43 -80 40 -5 0 -7 3
-5 7 1 5 -33 37 -75 71 -43 33 -78 65 -78 69 0 11 -63 46 -79 43 -7 -1 -10 2
-6 8 8 14 -46 62 -63 56 -7 -3 -10 0 -7 5 7 12 -65 81 -77 74 -5 -3 -7 0 -6 7
2 7 -11 21 -27 33 -17 12 -32 26 -35 31 -9 22 -110 96 -121 89 -7 -4 -9 -3 -6
2 3 6 -39 57 -94 114 -54 57 -99 105 -99 108 0 2 -24 29 -54 60 -30 32 -64 69
-76 85 -12 15 -26 25 -31 21 -5 -3 -8 -2 -7 3 4 13 -33 63 -43 57 -5 -3 -7 1
-4 8 3 7 -7 27 -23 43 -39 43 -64 84 -57 96 4 5 2 8 -4 7 -5 -2 -17 6 -25 17
l-16 20 6 -20 c5 -16 4 -17 -4 -5 -6 8 -8 18 -5 22 2 5 -11 28 -31 52 -19 24
-32 46 -29 50 4 3 2 6 -4 6 -5 0 -29 33 -54 73 -63 104 -65 106 -97 172 -61
124 -82 177 -76 187 4 6 2 8 -4 4 -18 -11 -23 6 -32 99 0 6 -7 -1 -16 -15 -13
-21 -14 -22 -9 -4 3 12 -1 37 -9 55 -7 19 -24 59 -36 89 -12 30 -26 62 -30 70
-4 8 -6 25 -5 37 1 12 -2 20 -7 17 -4 -3 -8 6 -8 20 0 14 -4 28 -10 31 -5 3
-10 14 -10 23 0 15 2 15 11 2 9 -12 10 -12 5 3 -3 10 -6 26 -7 35 0 14 -2 13
-8 -2 -6 -15 -11 -5 -20 41 -6 33 -8 68 -5 78 6 14 4 16 -6 10 -10 -6 -12 -4
-7 8 4 10 2 17 -4 17 -7 0 -9 11 -7 25 3 14 1 28 -4 31 -5 3 -6 14 -3 25 4 11
2 19 -4 19 -6 0 -11 15 -10 33 1 35 -4 63 -13 72 -3 3 -3 24 -1 46 2 23 1 39
-4 36 -4 -3 -8 15 -7 39 0 24 -3 49 -7 56 -4 6 -3 21 3 31 7 15 7 18 -2 12 -9
-5 -10 -2 -6 13 4 11 3 23 -1 25 -5 3 -10 29 -11 57 -1 32 2 49 8 45 5 -3 10
1 10 9 0 9 -4 16 -10 16 -5 0 -10 7 -10 16 0 8 5 12 10 9 13 -8 13 18 -1 32
-8 8 -7 17 3 33 11 19 11 23 -1 28 -11 4 -11 6 0 13 8 5 9 9 3 9 -10 0 -10 62
0 180 3 30 5 59 6 63 0 5 3 6 8 4 8 -6 10 68 1 77 -9 9 2 66 13 66 6 0 5 6 -2
15 -10 12 -10 15 0 15 7 0 10 7 6 16 -3 8 -2 12 4 9 6 -3 10 -1 10 4 0 6 -4
11 -10 11 -5 0 -10 5 -10 11 0 5 5 7 11 3 8 -4 9 1 4 16 -4 14 -3 20 2 17 6
-4 8 4 5 18 -3 16 0 25 8 25 7 0 10 7 6 15 -3 8 -1 15 4 15 5 0 7 7 3 16 -3 9
0 20 8 25 12 7 12 9 0 9 -11 0 -9 5 5 22 10 12 13 18 5 13 -11 -6 -13 -4 -7
11 4 10 9 26 10 33 2 8 8 17 14 19 7 2 12 8 12 13 0 6 -5 7 -11 3 -14 -8 -1
38 14 47 5 4 6 12 3 18 -4 6 0 19 9 28 11 10 14 24 10 40 -3 14 -2 22 3 19 5
-3 7 6 4 21 -4 19 -2 24 8 18 9 -5 10 -2 6 13 -4 12 -1 26 9 36 9 8 16 18 15
21 -1 20 2 25 16 25 11 0 14 6 9 21 -4 12 2 39 15 67 12 25 26 57 31 70 6 15
13 21 21 16 10 -6 10 -4 0 8 -10 13 -10 17 0 20 7 3 13 11 14 19 3 44 5 50 12
45 4 -3 8 7 8 22 -1 15 4 27 11 27 6 0 15 3 19 8 4 4 2 7 -4 7 -9 0 -9 7 0 28
18 40 61 102 53 75 -3 -12 -2 -24 2 -26 4 -3 9 7 10 21 0 15 7 28 13 30 9 3 9
7 -1 14 -11 7 -11 11 -1 15 6 2 12 11 12 19 0 9 5 12 13 8 6 -4 9 -4 5 1 -9 9
14 56 36 74 9 7 13 17 10 22 -3 5 -1 9 4 9 5 0 17 18 27 40 10 22 22 40 27 40
5 0 13 11 18 25 5 14 13 25 18 25 4 0 14 16 22 35 8 19 17 35 22 35 4 0 8 7 8
15 0 8 4 15 10 15 5 0 28 29 51 65 23 37 45 62 51 58 7 -3 8 -1 4 6 -9 14 25
65 71 107 24 23 30 34 21 38 -7 3 -3 4 10 2 19 -4 21 -2 11 10 -9 11 -7 14 10
14 13 0 29 7 37 15 11 10 12 15 3 15 -6 0 3 10 22 23 19 12 33 27 31 31 -2 5
7 14 20 20 13 6 24 22 26 34 2 12 10 22 18 22 12 0 18 11 16 31 -1 3 5 6 13 6
8 0 12 -5 8 -11 -3 -6 9 5 26 24 17 19 29 40 26 47 -2 7 1 15 7 19 7 4 8 3 4
-4 -10 -16 2 -15 19 2 11 10 11 16 2 26 -9 10 -9 11 1 5 9 -4 25 4 45 23 18
17 35 30 38 29 6 -2 30 18 102 86 22 22 46 36 54 33 8 -3 12 -2 9 3 -3 5 1 14
9 21 8 7 12 17 9 22 -4 6 3 5 15 -1 16 -9 21 -9 19 0 -2 7 26 35 62 62 36 28
64 54 62 59 -1 5 2 7 7 3 6 -3 19 3 31 15 11 11 20 17 20 13 0 -5 9 5 19 20
13 20 20 25 24 15 4 -9 6 -7 6 5 1 9 6 17 11 17 6 0 10 7 10 15 0 8 6 15 13
15 8 0 22 9 33 21 10 12 47 34 81 49 35 16 63 34 63 39 0 6 8 11 18 11 10 0
28 7 40 16 12 8 28 14 34 12 7 -3 22 4 34 14 22 20 63 44 127 75 21 10 35 23
32 30 -3 8 6 7 22 -4 15 -10 24 -12 20 -5 -5 7 -3 12 7 12 9 0 16 7 16 16 0
10 6 14 15 10 8 -3 15 -1 15 4 0 6 5 10 11 10 5 0 8 -4 5 -9 -4 -5 7 -4 24 2
16 6 30 15 30 20 0 4 5 5 10 2 6 -3 10 -1 10 4 0 6 8 11 18 11 10 0 24 6 30
12 10 10 15 10 22 -2 5 -8 10 -10 10 -4 0 12 39 27 77 29 12 0 26 4 30 8 12
13 256 2 261 -11z m-478 -46 c0 -2 -7 -6 -15 -10 -8 -3 -15 -1 -15 4 0 6 7 10
15 10 8 0 15 -2 15 -4z m1090 -406 c0 -5 -2 -10 -4 -10 -3 0 -8 5 -11 10 -3 6
-1 10 4 10 6 0 11 -4 11 -10z m589 -1405 c0 -5 -4 -3 -9 5 -5 8 -9 22 -9 30 0
16 17 -16 18 -35z m9838 -1780 c0 -8 -4 -12 -9 -9 -5 3 -6 10 -3 15 9 13 12
11 12 -6z m3 -185 c0 -11 -4 -20 -9 -20 -5 0 -7 9 -4 20 3 11 7 20 9 20 2 0 4
-9 4 -20z m-8950 -175 c14 -19 14 -19 -2 -6 -10 7 -18 18 -18 24 0 6 1 8 3 6
1 -2 9 -13 17 -24z m777 -707 c-3 -8 -6 -5 -6 6 -1 11 2 17 5 13 3 -3 4 -12 1
-19z m-542 -3926 c-3 -3 -11 0 -18 7 -9 10 -8 11 6 5 10 -3 15 -9 12 -12z"/>
<path d="M14820 23609 c0 -5 5 -7 10 -4 6 3 10 8 10 11 0 2 -4 4 -10 4 -5 0
-10 -5 -10 -11z"/>
<path d="M27970 22290 c0 -5 5 -10 11 -10 5 0 7 5 4 10 -3 6 -8 10 -11 10 -2
0 -4 -4 -4 -10z"/>
<path d="M14292 22050 c0 -14 2 -19 5 -12 2 6 2 18 0 25 -3 6 -5 1 -5 -13z"/>
<path d="M28105 21257 c-4 -10 -5 -21 -1 -24 10 -10 18 4 13 24 -4 17 -4 17
-12 0z"/>
<path d="M14381 21074 c0 -11 3 -14 6 -6 3 7 2 16 -1 19 -3 4 -6 -2 -5 -13z"/>
<path d="M28081 20974 c0 -11 3 -14 6 -6 3 7 2 16 -1 19 -3 4 -6 -2 -5 -13z"/>
<path d="M26576 18268 c3 -5 10 -6 15 -3 13 9 11 12 -6 12 -8 0 -12 -4 -9 -9z"/>
</g>
</svg>
