<?xml version="1.0" standalone="no"?>
<!DOCTYPE svg PUBLIC "-//W3C//DTD SVG 20010904//EN"
 "http://www.w3.org/TR/2001/REC-SVG-20010904/DTD/svg10.dtd">
<svg version="1.0" xmlns="http://www.w3.org/2000/svg"
 width="1024.000000pt" height="1024.000000pt" viewBox="0 0 1024.000000 1024.000000"
 preserveAspectRatio="xMidYMid meet">

<g transform="translate(0.000000,1024.000000) scale(0.100000,-0.100000)"
fill="#000000" stroke="none">
<path d="M0 5120 l0 -5120 5120 0 5120 0 0 5120 0 5120 -5120 0 -5120 0 0
-5120z m10230 0 l0 -5110 -5110 0 -5110 0 0 5110 0 5110 5110 0 5110 0 0
-5110z"/>
<path d="M3052 7668 c3 -7 -1 -18 -8 -25 -18 -18 -54 -16 -54 2 0 8 8 15 17
15 9 0 14 3 10 6 -3 4 -17 4 -30 1 -20 -6 -22 -11 -19 -42 6 -49 -19 -75 -70
-75 -35 0 -38 -2 -38 -28 0 -29 -31 -72 -52 -72 -6 0 -4 -8 5 -18 10 -10 17
-24 17 -30 0 -25 -30 -10 -66 33 -20 25 -40 45 -44 45 -12 0 -26 -44 -22 -68
3 -19 6 -21 18 -11 8 6 14 18 14 25 0 8 5 14 10 14 17 0 11 -46 -8 -63 -10
-10 -30 -17 -44 -17 -41 0 -49 -52 -55 -337 l-5 -253 323 -2 324 -3 5 -1985 5
-1985 27 -52 c36 -68 90 -120 158 -152 51 -24 65 -26 185 -26 116 1 139 4 213
29 190 64 322 207 368 396 20 82 18 226 -5 299 -34 110 -106 202 -185 237 -26
11 208 13 1577 14 l1607 0 -2 1968 c-3 1895 -4 1968 -22 2004 -25 51 -85 112
-138 140 l-43 23 -1988 3 c-1592 2 -1988 0 -1985 -10z m1251 -415 c12 -14 16
-48 19 -165 3 -168 7 -177 80 -185 37 -4 49 -1 74 20 l29 25 5 152 c5 146 6
153 27 161 40 14 45 -8 41 -181 l-3 -162 -37 -33 c-89 -82 -270 -41 -292 66
-3 17 -6 91 -6 165 0 116 2 134 18 143 23 14 27 14 45 -6z m467 -5 c11 -12 38
-52 60 -90 23 -37 43 -68 45 -68 2 0 19 24 36 54 18 30 37 52 41 50 5 -3 8 -2
7 3 -4 26 4 44 26 59 20 13 28 14 40 4 25 -20 18 -39 -50 -139 l-64 -96 -3
-84 c-2 -68 -6 -86 -21 -95 -15 -9 -22 -7 -38 13 -15 18 -19 39 -19 100 l-1
76 -59 90 c-33 50 -60 98 -60 107 0 13 22 36 37 38 1 0 11 -10 23 -22z m670 3
c6 -11 10 -87 10 -175 l0 -155 96 -3 c79 -2 99 -6 108 -20 8 -13 8 -23 0 -35
-16 -26 -254 -32 -278 -8 -14 14 -16 45 -16 204 0 132 4 191 12 199 18 18 56
14 68 -7z m420 -7 c13 -33 13 -345 0 -379 -8 -22 -15 -26 -42 -23 l-33 3 -3
190 c-1 105 0 200 3 213 8 33 62 31 75 -4z m407 0 c59 -44 66 -106 12 -112
-18 -2 -30 6 -46 33 -13 19 -34 37 -48 41 -30 8 -75 -7 -89 -29 -18 -28 6 -50
70 -68 131 -36 167 -66 167 -139 0 -47 -22 -84 -66 -110 -41 -26 -144 -27
-194 -3 -57 27 -91 101 -61 131 22 22 46 13 69 -27 12 -22 35 -45 50 -51 57
-24 127 15 115 63 -6 26 -25 36 -120 62 -101 28 -140 92 -104 171 28 62 181
85 245 38z m511 -7 c7 -33 -17 -47 -79 -47 l-59 0 -2 -172 -3 -173 -35 0 -35
0 -3 173 -2 172 -59 0 c-64 0 -87 15 -76 49 8 26 21 27 200 21 134 -4 150 -7
153 -23z m-2759 17 c46 -10 81 -49 81 -93 0 -46 -25 -85 -51 -78 -11 3 -19 3
-19 0 0 -7 28 -33 36 -33 4 0 18 -10 31 -22 28 -26 31 -91 7 -127 -28 -39 -73
-51 -193 -51 -99 0 -111 2 -121 19 -6 11 -10 92 -10 190 0 208 -4 201 119 201
49 0 102 -3 120 -6z m789 -666 c19 -19 15 -36 -39 -142 -111 -216 -183 -336
-256 -423 l-44 -53 -5 -112 c-5 -122 -16 -151 -61 -169 -16 -6 -127 -9 -280
-7 l-253 3 -27 28 -28 27 -3 271 -3 270 35 35 34 34 260 0 260 0 30 -28 c24
-22 32 -40 37 -85 4 -31 5 -63 1 -72 -11 -30 12 -14 35 23 44 73 97 169 149
267 29 55 62 110 73 123 22 24 66 29 85 10z m1954 -365 c21 -19 24 -56 4 -72
-16 -13 -1671 -30 -1720 -17 -38 9 -54 48 -32 81 l16 25 857 0 c783 0 858 -1
875 -17z m6 -345 c18 -15 15 -52 -6 -72 -17 -15 -91 -16 -873 -16 l-854 -1
-17 22 c-23 28 -23 44 3 70 l22 22 856 -8 c557 -4 860 -11 869 -17z m-2040
-385 c6 -41 -185 -378 -251 -445 -10 -10 -14 -28 -12 -54 3 -21 2 -79 -2 -129
-5 -80 -9 -92 -34 -117 l-27 -28 -256 0 c-167 0 -264 4 -280 11 -54 25 -58 50
-54 336 l3 263 28 27 27 28 253 3 c225 2 256 1 287 -15 42 -22 64 -76 57 -141
-3 -27 -1 -42 6 -39 6 2 43 64 83 138 91 168 108 191 143 187 18 -2 27 -10 29
-25z m2035 -232 c24 -19 21 -57 -5 -75 -20 -14 -120 -16 -875 -16 l-852 0 -15
22 c-21 29 -20 51 2 71 24 22 116 23 1013 17 587 -4 719 -7 732 -19z m5 -343
c17 -17 15 -54 -4 -72 -14 -14 -107 -16 -874 -16 -767 0 -860 2 -874 16 -19
18 -20 38 -6 65 10 19 31 19 878 19 662 0 871 -3 880 -12z m-2375 -479 c21 -6
44 -21 54 -36 19 -28 21 -74 16 -401 l-3 -164 -29 -29 -29 -29 -256 0 c-169 0
-263 4 -280 11 -51 23 -56 55 -56 326 0 274 3 287 60 315 30 16 66 18 260 18
126 0 242 -5 263 -11z m2365 -115 c12 -8 22 -26 22 -39 0 -57 32 -55 -892 -55
-835 0 -848 0 -868 20 -11 11 -20 27 -20 35 0 8 9 24 20 35 20 20 33 20 868
20 751 0 850 -2 870 -16z m6 -350 c9 -8 16 -24 16 -34 0 -10 -7 -26 -16 -34
-14 -14 -107 -16 -874 -16 l-860 0 -16 25 c-15 23 -15 27 0 50 l16 25 860 0
c767 0 860 -2 874 -16z m-3109 -4 c3 -6 -1 -7 -9 -4 -18 7 -21 14 -7 14 6 0
13 -4 16 -10z m-28 -106 c-3 -3 -12 -4 -19 -1 -8 3 -5 6 6 6 11 1 17 -2 13 -5z"/>
<path d="M3860 7146 l0 -56 68 0 c37 0 74 4 82 9 15 10 20 75 6 88 -4 4 -41 9
-82 11 l-74 4 0 -56z"/>
<path d="M3863 7024 c-2 -6 -3 -35 -1 -65 3 -48 5 -53 26 -52 12 0 45 1 72 2
62 1 95 28 85 69 -3 15 -11 32 -16 37 -15 15 -160 23 -166 9z"/>
<path d="M2883 7628 c-28 -14 -29 -20 -2 -44 25 -23 53 -9 57 30 4 29 -15 34
-55 14z"/>
<path d="M2825 7590 c3 -5 8 -10 11 -10 2 0 4 5 4 10 0 6 -5 10 -11 10 -5 0
-7 -4 -4 -10z"/>
<path d="M2766 7541 c-24 -26 -13 -61 18 -61 30 0 48 22 44 52 -4 30 -39 35
-62 9z"/>
<path d="M5658 3443 c7 -3 16 -2 19 1 4 3 -2 6 -13 5 -11 0 -14 -3 -6 -6z"/>
<path d="M4291 3134 c0 -11 3 -14 6 -6 3 7 2 16 -1 19 -3 4 -6 -2 -5 -13z"/>
</g>
</svg>
